PathFileType	3	(X/Y/Z)	F:\ViconData\AntennenMessung\Messung1\Session1\ID09.trc
DataRate	CameraRate	NumFrames	NumMarkers	Units	OrigDataRate	OrigDataStartFrame	OrigNumFrames
120.0	120.0	6	70	mm	120.0	947	1082	
Frame#	Time	Ashort			Along			Atop			A4			Bshort			Blong			Btop			B4			Cshort			Clong			Ctop			C4			Dshort			Dlong			Dtop			D4			Eshort			Elong			Etop			E4			Fshort			Flong			Ftop			F4			Gshort			Glong			Gtop			G4			Hshort			Hlong			Htop			H4			I1			I2			I3			I4			I5			WandAshort			WandAlong			WandAtop			WandA4			WandA15			WandBshort			WandB4			WandB5			WandBtop			WandBlong			WandCshort			WandClong			WandCtop			WandC4			WandC5			Acenter			Aantenna			Bcenter			Bantenna			Ccenter			Cantenna			Dcenter			Dantenna			Ecenter			Eantenna			Fcenter			Fantenna			Gcenter			Gantenna			Hcenter			Hantenna			Icenter			Iantenna			
		X1	Y1	Z1	X2	Y2	Z2	X3	Y3	Z3	X4	Y4	Z4	X5	Y5	Z5	X6	Y6	Z6	X7	Y7	Z7	X8	Y8	Z8	X9	Y9	Z9	X10	Y10	Z10	X11	Y11	Z11	X12	Y12	Z12	X13	Y13	Z13	X14	Y14	Z14	X15	Y15	Z15	X16	Y16	Z16	X17	Y17	Z17	X18	Y18	Z18	X19	Y19	Z19	X20	Y20	Z20	X21	Y21	Z21	X22	Y22	Z22	X23	Y23	Z23	X24	Y24	Z24	X25	Y25	Z25	X26	Y26	Z26	X27	Y27	Z27	X28	Y28	Z28	X29	Y29	Z29	X30	Y30	Z30	X31	Y31	Z31	X32	Y32	Z32	X33	Y33	Z33	X34	Y34	Z34	X35	Y35	Z35	X36	Y36	Z36	X37	Y37	Z37	X38	Y38	Z38	X39	Y39	Z39	X40	Y40	Z40	X41	Y41	Z41	X42	Y42	Z42	X43	Y43	Z43	X44	Y44	Z44	X45	Y45	Z45	X46	Y46	Z46	X47	Y47	Z47	X48	Y48	Z48	X49	Y49	Z49	X50	Y50	Z50	X51	Y51	Z51	X52	Y52	Z52	X53	Y53	Z53	X54	Y54	Z54	X55	Y55	Z55	X56	Y56	Z56	X57	Y57	Z57	X58	Y58	Z58	X59	Y59	Z59	X60	Y60	Z60	X61	Y61	Z61	X62	Y62	Z62	X63	Y63	Z63	X64	Y64	Z64	X65	Y65	Z65	X66	Y66	Z66	X67	Y67	Z67	X68	Y68	Z68	X69	Y69	Z69	X70	Y70	Z70	
947	7.8833333	-1038.2385	214.4856	-1644.1426	-1109.3358	203.97029	-1599.3972	-1063.5409	172.7932	-1625.8646	-1054.1829	262.21625	-1634.8997	-1352.9115	235.06494	1004.1133	-1281.3105	227.14908	1052.6393	-1322.8715	194.0448	1020.8701	-1284.8231	288.10184	1052.3802	814.19464	187.46858	1209.5414	892.59601	179.31992	1178.6619	844.2605	145.67342	1198.3021	860.99951	292.89688	1168.8441	1115.739	209.60062	-1401.5599	1056.1613	194.1006	-1460.0681	1095.0051	162.27884	-1423.8643	1069.8397	238.77432	-1425.8514	-1204.676	1686.1073	-1562.9371	-1129.1351	1688.2604	-1605.9998	-1173.1395	1724.4298	-1581.9548	-1134.0404	1581.0797	-1603.8096	-1239.7659	1699.3553	1119.5002	-1309.2922	1698.6816	1071.8756	-1270.4893	1736.406	1096.9225	-1245.6843	1592.9602	1110.7352	988.8866	1664.281	1162.3376	955.80072	1702.2684	1181.0973	922.21906	1662.3038	1214.975	939.79413	1659.4429	1159.9362	999.11884	1668.4924	-1579.3468	1058.881	1670.1774	-1518.5813	1024.9955	1708.0392	-1551.0613	1059.2626	1672.1688	-1585.3794	410.97406	1606.3594	-24.000465	411.4201	1608.049	-108.07762	413.4368	1644.0333	-60.889065	444.15347	1605.1018	-61.073643	363.34351	1610.3545	-61.456745																																														-1068.5441	210.00339	-1625.0696	-1073.7399	248.64691	-1624.2441	-1321.6981	231.61412	1025.2673	-1320.4889	270.33109	1029.7991	847.50409	184.00655	1196.4219	850.78845	222.82133	1194.5181	1088.6984	202.56563	-1428.115	1082.6992	240.8887	-1432.1586	-1171.8877	1687.0417	-1581.6282	-1170.5828	1648.0651	-1581.2878	-1270.9574	1699.053	1098.1344	-1271.4459	1660.0765	1099.3989	953.18494	1705.2716	1182.5802	972.6369	1732.2628	1162.2308	1026.52	1669.2649	-1551.4855	1028.0522	1630.2974	-1551.9119	411.17374	1607.1157	-61.642944	408.78799	1568.1969	-62.437695
948	7.8916667	-1038.1981	214.47832	-1644.249	-1109.3317	204.01445	-1599.3862	-1063.5856	172.79414	-1625.8536	-1054.212	262.21323	-1634.9088	-1352.7604	235.13249	1004.0572	-1281.3601	227.06334	1052.7609	-1322.8822	194.03087	1020.8579	-1284.5615	288.17252	1052.1614	814.15607	187.41783	1209.5721	892.58258	179.22812	1178.6735	844.27063	145.69243	1198.2371	861.25922	293.11307	1169.5039	1115.7805	209.8653	-1401.7098	1056.1448	194.15605	-1460.2095	1094.9841	162.31726	-1423.9429	1069.8215	238.78842	-1425.8322	-1204.6953	1686.1033	-1562.9252	-1129.1234	1688.2716	-1606.0171	-1173.1357	1724.427	-1581.9542	-1133.7651	1581.0314	-1603.646	-1239.7866	1699.3942	1119.5156	-1309.3368	1698.8627	1071.9329	-1270.49	1736.3907	1096.9237	-1245.7179	1592.9961	1110.7406	988.89606	1664.2799	1162.3247	955.85437	1702.3119	1181.1304	922.1153	1662.3079	1214.9546	939.8147	1659.4182	1159.9415	999.12921	1668.4987	-1579.348	1058.8829	1670.1779	-1518.5912	1024.998	1708.0496	-1551.0751	1059.2635	1672.1611	-1585.3823	410.95798	1606.3417	-23.998947	411.42645	1608.0428	-108.08334	413.44662	1644.0227	-60.880154	444.19614	1605.1243	-61.060818	363.31915	1610.365	-61.442467																																														-1068.5776	210.00941	-1625.089	-1073.7618	248.65517	-1624.2952	-1321.6497	231.61658	1025.2783	-1320.3805	270.3291	1029.8313	847.54657	183.93102	1196.4169	850.87183	222.74504	1194.5692	1088.6444	202.71712	-1428.3289	1082.6328	241.02591	-1432.4878	-1171.8816	1687.0448	-1581.636	-1170.574	1648.0681	-1581.3041	-1271.0353	1699.1552	1098.1368	-1271.6062	1660.1801	1099.4065	953.23254	1705.3296	1182.6226	972.75427	1732.3196	1162.3387	1026.5186	1669.2683	-1551.4987	1028.0465	1630.3005	-1551.9243	411.16769	1607.1031	-61.639736	408.76538	1568.1854	-62.440437
949	7.9	-1038.2009	214.46867	-1644.137	-1109.3142	203.90796	-1599.3541	-1063.5673	172.80106	-1625.8773	-1054.1691	262.22003	-1634.9032	-1352.8156	235.0582	1004.1541	-1281.3419	227.27013	1052.2778	-1323.0062	193.97821	1020.8685	-1284.608	288.17609	1052.2338	814.16522	187.47504	1209.6309	892.10541	178.51228	1179.2001	844.2804	145.66576	1198.3101	861.04224	292.86542	1168.7588	1115.7681	209.86633	-1401.7133	1056.1422	194.14774	-1460.151	1095.0568	162.35606	-1423.8918	1069.7852	238.79112	-1425.8634	-1204.6965	1686.1101	-1562.9329	-1129.1395	1688.286	-1606.0153	-1173.1353	1724.4341	-1581.9482	-1133.7849	1581.0428	-1603.6492	-1239.7368	1699.3188	1119.4865	-1309.2682	1698.6896	1071.8768	-1270.4844	1736.3889	1096.9136	-1245.6938	1592.9518	1110.7239	988.91321	1664.2821	1162.288	955.84821	1702.2332	1181.1278	922.66632	1662.0739	1215.0109	939.78448	1659.403	1159.9299	999.12897	1668.5133	-1579.3801	1058.8801	1670.1788	-1518.5901	1025.0068	1708.0422	-1551.0721	1059.2509	1672.1974	-1585.4867	410.96439	1606.3619	-23.973021	411.42572	1608.0491	-108.09297	413.42444	1644.0358	-60.879448	444.18991	1605.105	-61.06012	363.33475	1610.361	-61.442558																																														-1068.5494	209.96176	-1625.0253	-1073.7303	248.60593	-1624.1394	-1321.735	231.67154	1025.0807	-1320.4287	270.40854	1029.4094	847.91687	183.59375	1196.4529	851.63464	222.36971	1194.5542	1088.6884	202.72757	-1428.2532	1082.6459	241.03375	-1432.3914	-1171.8843	1687.0549	-1581.6421	-1170.58	1648.0782	-1581.323	-1270.9624	1699.0363	1098.1057	-1271.4613	1660.0592	1099.3495	953.42804	1705.0109	1182.5066	972.77209	1732.0114	1162.0668	1026.5277	1669.277	-1551.5049	1028.0568	1630.3093	-1551.9398	411.1709	1607.1172	-61.632198	408.79526	1568.1978	-62.425751
950	7.9083333	-1038.2452	214.54831	-1644.1841	-1109.3541	203.94252	-1599.3976	-1063.5939	172.29366	-1625.5752	-1054.1729	262.23599	-1634.92	-1352.8672	235.06987	1004.1161	-1281.4005	227.10661	1052.7051	-1322.9349	194.02429	1020.855	-1284.7245	288.11749	1052.3463	814.1543	187.49297	1209.5411	892.56946	179.23517	1178.7185	844.25958	145.68555	1198.3353	861.2063	293.03726	1169.4635	1115.7804	209.88507	-1401.7155	1056.141	194.17337	-1460.1473	1094.9971	162.3667	-1423.8151	1069.8309	238.81519	-1425.8757	-1204.6932	1686.104	-1562.9237	-1129.1482	1688.2828	-1606.0068	-1173.1293	1724.4248	-1581.9496	-1133.778	1581.0365	-1603.6581	-1239.7794	1699.3716	1119.5105	-1309.2369	1698.5977	1071.8503	-1270.4946	1736.4082	1096.92	-1245.7064	1593.0004	1110.7477	988.82635	1664.2081	1162.2988	955.83466	1702.2267	1181.0955	922.80719	1662.0382	1214.9907	939.79938	1659.4417	1159.9045	999.11774	1668.5128	-1579.3757	1058.8909	1670.1871	-1518.5856	1025.0034	1708.0459	-1551.0614	1059.2643	1672.1656	-1585.3746	410.95602	1606.363	-23.993826	411.41513	1608.0447	-108.08756	413.42441	1644.0334	-60.889244	444.16177	1605.1012	-61.067387	363.35016	1610.3324	-61.429623																																														-1068.8114	209.98938	-1624.9325	-1074.1577	248.61559	-1624.274	-1321.7505	231.60266	1025.2716	-1320.5303	270.31708	1029.8219	847.53864	183.97729	1196.4187	850.86206	222.78685	1194.4762	1088.7003	202.75096	-1428.2471	1082.7272	241.06081	-1432.4517	-1171.8749	1687.0504	-1581.6399	-1170.5665	1648.0739	-1581.3169	-1270.9178	1699.0245	1098.1439	-1271.3593	1660.0479	1099.42	953.56238	1704.845	1182.3901	972.91559	1731.7821	1161.8755	1026.5311	1669.2805	-1551.4957	1028.0668	1630.3132	-1551.9325	411.1615	1607.1157	-61.63979	408.77597	1568.1969	-62.431026
951	7.9166667	-1038.2231	214.55376	-1644.1968	-1109.3427	203.96468	-1599.3838	-1063.6714	172.21278	-1625.5417	-1054.1945	262.21985	-1634.9158	-1352.8378	235.12033	1004.1182	-1281.3804	227.08669	1052.6903	-1322.9669	193.97174	1020.905	-1284.6638	288.18842	1052.2531	814.13135	187.47511	1209.605	892.53204	179.16765	1178.7899	844.30725	145.67456	1198.3236	861.08276	292.97305	1168.8206	1115.7241	209.60458	-1401.5616	1056.1422	194.14331	-1460.1683	1095.0846	162.35086	-1423.9055	1069.8085	238.82442	-1425.8655	-1204.6827	1686.1156	-1562.9333	-1129.167	1688.2529	-1605.9896	-1173.1492	1724.4392	-1581.9652	-1134.0415	1581.057	-1603.7944	-1239.795	1699.4069	1119.5172	-1309.2058	1698.6139	1071.8525	-1270.4978	1736.3956	1096.9171	-1245.6505	1592.8496	1110.6968	988.89764	1664.282	1162.2963	955.95245	1702.2118	1181.189	922.10443	1662.3584	1214.9908	939.82593	1659.405	1159.917	999.13977	1668.5143	-1579.3395	1058.896	1670.1943	-1518.5826	1025.0162	1708.0481	-1551.0695	1059.2786	1672.1649	-1585.3768	410.98593	1606.3701	-23.974995	411.4278	1608.0492	-108.08733	413.43518	1644.0385	-60.892658	444.18839	1605.1259	-61.061291	363.36032	1610.3455	-61.430199																																														-1068.879	209.98933	-1624.8802	-1074.2043	248.61813	-1624.2039	-1321.7072	231.62044	1025.2787	-1320.4116	270.33853	1029.7766	847.62091	183.9265	1196.442	850.98273	222.73441	1194.5331	1088.7544	202.60603	-1428.0898	1082.7278	240.93109	-1432.0736	-1171.8976	1687.0435	-1581.6261	-1170.5929	1648.0669	-1581.2727	-1270.9154	1699.0513	1098.1467	-1271.3513	1660.0747	1099.4299	953.18384	1705.3992	1182.7765	972.70288	1732.4303	1162.5447	1026.5321	1669.2843	-1551.4884	1028.0559	1630.3164	-1551.9097	411.18378	1607.1219	-61.641418	408.81021	1568.2023	-62.430813
952	7.925	-1038.2231	214.51332	-1644.1583	-1109.328	203.95474	-1599.3932	-1063.5289	172.80864	-1625.8859	-1054.1785	262.21942	-1634.9136	-1352.8754	235.13071	1004.1478	-1281.373	227.15256	1052.6754	-1322.9692	193.97044	1020.8993	-1284.7196	288.16452	1052.2803	814.172	187.46867	1209.5145	892.55029	179.28188	1178.694	844.26636	145.71678	1198.2639	861.05017	292.99527	1168.8514	1115.7911	209.88657	-1401.722	1056.157	194.15907	-1460.2017	1094.9825	162.32718	-1423.9269	1069.8253	238.74892	-1425.8063	-1204.6936	1686.1071	-1562.9332	-1129.1425	1688.3259	-1606.2155	-1173.1405	1724.4236	-1581.9473	-1133.7689	1581.0475	-1603.6614	-1239.7819	1699.3906	1119.5105	-1309.4037	1698.927	1071.9603	-1270.4858	1736.3796	1096.9136	-1245.7006	1592.9622	1110.7216	988.91724	1664.3156	1162.3063	955.82214	1702.2405	1181.1321	922.21606	1662.1965	1214.8937	939.79462	1659.4125	1159.965	999.13507	1668.5077	-1579.3647	1058.8962	1670.1931	-1518.5873	1025.0164	1708.041	-1551.0684	1059.2798	1672.1672	-1585.3771	410.98026	1606.3701	-23.985365	411.43597	1608.0482	-108.08802	413.42703	1644.03	-60.883575	444.1832	1605.1182	-61.064926	363.31171	1610.3582	-61.430965																																														-1068.5405	210.01138	-1625.0715	-1073.7462	248.65314	-1624.2258	-1321.7375	231.65639	1025.2804	-1320.4723	270.37509	1029.7816	847.52948	183.98439	1196.3973	850.83917	222.79756	1194.5043	1088.6512	202.72891	-1428.3363	1082.6484	241.03665	-1432.5173	-1171.91	1687.0698	-1581.7144	-1170.6261	1648.0917	-1581.4713	-1271.0746	1699.1823	1098.1382	-1271.6913	1660.2083	1099.4214	953.19647	1705.2491	1182.6256	972.65747	1732.2937	1162.356	1026.541	1669.2805	-1551.4926	1028.0739	1630.3129	-1551.9192	411.18423	1607.1211	-61.632164	408.81921	1568.2009	-62.421558
